{
  "source": "C:\\Users\\Peter\\Desktop\\stuff\\MIUN\\quantitative_research\\video_compression\\videos\\BVI-HD\\BVI-HD_CDVL_videos\\ORIG\\PlasmaSlowRandom_1920x1080_60fps.mp4",
  "output": "C:\\Users\\Peter\\Desktop\\stuff\\MIUN\\quantitative_research\\video_compression\\compressed_videos\\BVI-HD\\hevc\\8\\PlasmaSlowRandom_1920x1080_60fps_hevc.mp4",
  "codec": "hevc",
  "ok": "Input #0, mov,mp4,m4a,3gp,3g2,mj2, from 'C:\\Users\\Peter\\Desktop\\stuff\\MIUN\\quantitative_research\\video_compression\\videos\\BVI-HD\\BVI-HD_CDVL_videos\\ORIG\\PlasmaSlowRandom_1920x1080_60fps.mp4':\n  Metadata:\n    major_brand     : isom\n    minor_version   : 512\n    compatible_brands: isomiso2avc1mp41\n    encoder         : Lavf54.28.101\n  Duration: 00:00:05.00, start: 0.000000, bitrate: 23030 kb/s\n  Stream #0:0[0x1](und): Video: h264 (High 4:4:4 Predictive) (avc1 / 0x31637661), yuv420p(progressive), 1920x1080, 23026 kb/s, 60 fps, 60 tbr, 60 tbn (default)\n    Metadata:\n      handler_name    : VideoHandler\n      vendor_id       : [0][0][0][0]\n[out#0/mp4 @ 000001f36b521000] Codec AVOption b:a (set bitrate (in bits/s)) has not been used for any stream. The most likely reason is either wrong type (e.g. a video option with no video streams) or that it is a private option of some decoder which was not actually used for any stream.\nStream mapping:\n  Stream #0:0 -> #0:0 (h264 (native) -> hevc (libx265))\nPress [q] to stop, [?] for help\n[libx265 @ 000001f36bbad540] Unknown option: \"aq-mode.\nx265 [info]: HEVC encoder version 4.1+190-8f11c33ac\nx265 [info]: build info [Windows][GCC 15.1.0][64 bit] 10bit\nx265 [info]: using cpu capabilities: MMX2 SSE2Fast LZCNT SSSE3 SSE4.2 AVX FMA3 BMI2 AVX2\nx265 [info]: Main 10 profile, Level-4.1 (Main tier)\nx265 [info]: Thread pool created using 12 threads\nx265 [info]: Slices                              : 1\nx265 [info]: frame threads / pool features       : 3 / wpp(17 rows)\nx265 [info]: Coding QT: max CU size, min CU size : 64 / 8\nx265 [info]: Residual QT: max TU size, max depth : 32 / 1 inter / 1 intra\nx265 [info]: ME / range / subpel / merge         : star / 57 / 3 / 3\nx265 [info]: Keyframe min / max / scenecut / bias  : 25 / 250 / 40 / 5.00 \nx265 [info]: Lookahead / bframes / badapt        : 25 / 4 / 2\nx265 [info]: b-pyramid / weightp / weightb       : 1 / 1 / 0\nx265 [info]: References / ref-limit  cu / depth  : 4 / on / on\nx265 [info]: AQ: mode / str / qg-size / cu-tree  : 2 / 1.0 / 32 / 1\nx265 [info]: Rate Control / qCompress            : ABR-8000 kbps / 0.60\nx265 [info]: VBV/HRD buffer / max-rate / init    : 8000 / 8000 / 0.750\nx265 [info]: tools: rect limit-modes rd=4 psy-rd=2.00 rdoq=2 psy-rdoq=1.00\nx265 [info]: tools: rskip mode=1 signhide tmvp strong-intra-smoothing lslices=4\nx265 [info]: tools: deblock sao dhdr10-info\nOutput #0, mp4, to 'C:\\Users\\Peter\\Desktop\\stuff\\MIUN\\quantitative_research\\video_compression\\compressed_videos\\BVI-HD\\hevc\\8\\PlasmaSlowRandom_1920x1080_60fps_hevc.mp4':\n  Metadata:\n    major_brand     : isom\n    minor_version   : 512\n    compatible_brands: isomiso2avc1mp41\n    encoder         : Lavf62.3.100\n  Stream #0:0(und): Video: hevc (hev1 / 0x31766568), yuv420p10le(tv, progressive), 1920x1080, q=2-31, 8000 kb/s, 60 fps, 15360 tbn (default)\n    Metadata:\n      encoder         : Lavc62.11.100 libx265\n      handler_name    : VideoHandler\n      vendor_id       : [0][0][0][0]\n    Side data:\n      cpb: bitrate max/min/avg: 8000000/0/8000000 buffer size: 8000000 vbv_delay: N/A\nframe=    0 fps=0.0 q=0.0 size=       0KiB time=N/A bitrate=N/A speed=N/A elapsed=0:00:00.52    \nframe=    0 fps=0.0 q=0.0 size=       0KiB time=N/A bitrate=N/A speed=N/A elapsed=0:00:01.03    \nframe=    0 fps=0.0 q=0.0 size=       0KiB time=N/A bitrate=N/A speed=N/A elapsed=0:00:01.54    \nframe=    0 fps=0.0 q=0.0 size=       0KiB time=N/A bitrate=N/A speed=N/A elapsed=0:00:02.08    \nframe=    0 fps=0.0 q=0.0 size=       0KiB time=N/A bitrate=N/A speed=N/A elapsed=0:00:02.63    \nframe=    0 fps=0.0 q=0.0 size=       0KiB time=N/A bitrate=N/A speed=N/A elapsed=0:00:03.20    \nframe=    0 fps=0.0 q=0.0 size=       0KiB time=N/A bitrate=N/A speed=N/A elapsed=0:00:03.73    \nframe=    1 fps=0.2 q=29.4 size=       0KiB time=-00:00:00.01 bitrate=N/A speed=N/A elapsed=0:00:04.27    \nframe=    2 fps=0.4 q=31.1 size=       0KiB time=00:00:00.00 bitrate=N/A speed=   0x elapsed=0:00:04.79    \nframe=    4 fps=0.8 q=27.1 size=       0KiB time=00:00:00.03 bitrate=  10.6kbits/s speed=0.00627x elapsed=0:00:05.31    \nframe=    5 fps=0.9 q=27.9 size=       0KiB time=00:00:00.05 bitrate=   7.0kbits/s speed=0.00856x elapsed=0:00:05.83    \nframe=    6 fps=0.9 q=27.2 size=       0KiB time=00:00:00.06 bitrate=   5.3kbits/s speed=0.0105x elapsed=0:00:06.35    \nframe=    6 fps=0.9 q=27.2 size=       0KiB time=00:00:00.06 bitrate=   5.3kbits/s speed=0.00967x elapsed=0:00:06.89    \nframe=    8 fps=1.1 q=25.4 size=       0KiB time=00:00:00.10 bitrate=   3.5kbits/s speed=0.0135x elapsed=0:00:07.41    \nframe=    9 fps=1.1 q=23.6 size=       0KiB time=00:00:00.11 bitrate=   3.0kbits/s speed=0.0147x elapsed=0:00:07.92    \nframe=   11 fps=1.3 q=20.6 size=       0KiB time=00:00:00.15 bitrate=   2.3kbits/s speed=0.0178x elapsed=0:00:08.44    \nframe=   12 fps=1.3 q=19.6 size=       0KiB time=00:00:00.16 bitrate=   2.1kbits/s speed=0.0186x elapsed=0:00:08.96    \nframe=   14 fps=1.5 q=19.1 size=       0KiB time=00:00:00.20 bitrate=   1.8kbits/s speed=0.0211x elapsed=0:00:09.49    \nframe=   15 fps=1.5 q=19.6 size=       0KiB time=00:00:00.21 bitrate=   1.6kbits/s speed=0.0216x elapsed=0:00:10.01    \nframe=   16 fps=1.5 q=18.3 size=       0KiB time=00:00:00.23 bitrate=   1.5kbits/s speed=0.0221x elapsed=0:00:10.54    \nframe=   16 fps=1.4 q=18.3 size=       0KiB time=00:00:00.23 bitrate=   1.5kbits/s speed=0.0211x elapsed=0:00:11.08    \nframe=   19 fps=1.6 q=18.3 size=       0KiB time=00:00:00.28 bitrate=   1.2kbits/s speed=0.0244x elapsed=0:00:11.60    \nframe=   20 fps=1.7 q=17.1 size=       0KiB time=00:00:00.30 bitrate=   1.2kbits/s speed=0.0248x elapsed=0:00:12.11    \nframe=   20 fps=1.6 q=17.1 size=       0KiB time=00:00:00.30 bitrate=   1.2kbits/s speed=0.0237x elapsed=0:00:12.64    \nframe=   23 fps=1.7 q=16.3 size=       0KiB time=00:00:00.35 bitrate=   1.0kbits/s speed=0.0266x elapsed=0:00:13.16    \nframe=   24 fps=1.8 q=15.2 size=       0KiB time=00:00:00.36 bitrate=   1.0kbits/s speed=0.0268x elapsed=0:00:13.68    \nframe=   24 fps=1.7 q=15.2 size=       0KiB time=00:00:00.36 bitrate=   1.0kbits/s speed=0.0258x elapsed=0:00:14.22    \nframe=   26 fps=1.8 q=12.9 size=       0KiB time=00:00:00.40 bitrate=   0.9kbits/s speed=0.0271x elapsed=0:00:14.76    \nframe=   26 fps=1.7 q=12.9 size=       0KiB time=00:00:00.40 bitrate=   0.9kbits/s speed=0.0261x elapsed=0:00:15.30    \nframe=   26 fps=1.6 q=12.9 size=       0KiB time=00:00:00.40 bitrate=   0.9kbits/s speed=0.0253x elapsed=0:00:15.83    \nframe=   27 fps=1.6 q=15.2 size=     256KiB time=00:00:00.41 bitrate=5034.0kbits/s speed=0.0255x elapsed=0:00:16.36    \nframe=   27 fps=1.6 q=15.2 size=     256KiB time=00:00:00.41 bitrate=5034.0kbits/s speed=0.0247x elapsed=0:00:16.89    \nframe=   30 fps=1.7 q=15.0 size=     256KiB time=00:00:00.45 bitrate=4661.1kbits/s speed=0.0258x elapsed=0:00:17.45    \nframe=   31 fps=1.7 q=14.2 size=     256KiB time=00:00:00.48 bitrate=4339.7kbits/s speed=0.0269x elapsed=0:00:17.99    \nframe=   32 fps=1.7 q=14.4 size=     256KiB time=00:00:00.50 bitrate=4195.0kbits/s speed=0.027x elapsed=0:00:18.51    \nframe=   32 fps=1.7 q=14.4 size=     256KiB time=00:00:00.50 bitrate=4195.0kbits/s speed=0.0262x elapsed=0:00:19.05    \nframe=   34 fps=1.7 q=13.1 size=     256KiB time=00:00:00.53 bitrate=3932.8kbits/s speed=0.0272x elapsed=0:00:19.58    \nframe=   34 fps=1.7 q=13.1 size=     256KiB time=00:00:00.53 bitrate=3932.8kbits/s speed=0.0265x elapsed=0:00:20.11    \nframe=   35 fps=1.7 q=14.2 size=     256KiB time=00:00:00.55 bitrate=3813.6kbits/s speed=0.0266x elapsed=0:00:20.63    \nframe=   37 fps=1.7 q=11.1 size=     256KiB time=00:00:00.58 bitrate=3595.7kbits/s speed=0.0276x elapsed=0:00:21.16    \nframe=   38 fps=1.8 q=13.4 size=     256KiB time=00:00:00.60 bitrate=3495.8kbits/s speed=0.0277x elapsed=0:00:21.68    \nframe=   38 fps=1.7 q=13.4 size=     256KiB time=00:00:00.60 bitrate=3495.8kbits/s speed=0.027x elapsed=0:00:22.22    \nframe=   40 fps=1.8 q=12.2 size=     256KiB time=00:00:00.63 bitrate=3311.9kbits/s speed=0.0278x elapsed=0:00:22.75    \nframe=   42 fps=1.8 q=13.4 size=     512KiB time=00:00:00.66 bitrate=6292.0kbits/s speed=0.0286x elapsed=0:00:23.27    \nframe=   43 fps=1.8 q=13.4 size=     512KiB time=00:00:00.68 bitrate=6138.5kbits/s speed=0.0287x elapsed=0:00:23.82    \nframe=   45 fps=1.8 q=12.1 size=     512KiB time=00:00:00.71 bitrate=5853.0kbits/s speed=0.0294x elapsed=0:00:24.34    \nframe=   45 fps=1.8 q=12.1 size=     512KiB time=00:00:00.71 bitrate=5853.0kbits/s speed=0.0288x elapsed=0:00:24.84    \nframe=   46 fps=1.8 q=13.5 size=     512KiB time=00:00:00.73 bitrate=5720.0kbits/s speed=0.0289x elapsed=0:00:25.38    \nframe=   48 fps=1.9 q=12.4 size=     512KiB time=00:00:00.76 bitrate=5471.3kbits/s speed=0.0296x elapsed=0:00:25.88    \nframe=   50 fps=1.9 q=13.5 size=     512KiB time=00:00:00.80 bitrate=5243.3kbits/s speed=0.0303x elapsed=0:00:26.41    \nframe=   52 fps=1.9 q=11.4 size=     512KiB time=00:00:00.83 bitrate=5033.6kbits/s speed=0.0309x elapsed=0:00:26.93    \nframe=   53 fps=1.9 q=13.5 size=     512KiB time=00:00:00.85 bitrate=4934.9kbits/s speed=0.0309x elapsed=0:00:27.47    \nframe=   55 fps=2.0 q=14.4 size=     768KiB time=00:00:00.88 bitrate=7122.8kbits/s speed=0.0316x elapsed=0:00:27.99    \nframe=   56 fps=2.0 q=13.6 size=     768KiB time=00:00:00.90 bitrate=6990.9kbits/s speed=0.0316x elapsed=0:00:28.51    \nframe=   58 fps=2.0 q=13.5 size=     768KiB time=00:00:00.93 bitrate=6741.2kbits/s speed=0.0321x elapsed=0:00:29.03    \nframe=   60 fps=2.0 q=14.5 size=     768KiB time=00:00:00.96 bitrate=6508.8kbits/s speed=0.0327x elapsed=0:00:29.55    \nframe=   62 fps=2.1 q=12.4 size=     768KiB time=00:00:01.00 bitrate=6291.8kbits/s speed=0.0333x elapsed=0:00:30.06    \nframe=   64 fps=2.1 q=14.6 size=     768KiB time=00:00:01.03 bitrate=6088.8kbits/s speed=0.0338x elapsed=0:00:30.58    \nframe=   66 fps=2.1 q=13.7 size=     768KiB time=00:00:01.06 bitrate=5898.6kbits/s speed=0.0343x elapsed=0:00:31.10    \nframe=   67 fps=2.1 q=14.7 size=     768KiB time=00:00:01.08 bitrate=5807.8kbits/s speed=0.0343x elapsed=0:00:31.60    \nframe=   69 fps=2.1 q=15.6 size=    1024KiB time=00:00:01.11 bitrate=7512.5kbits/s speed=0.0348x elapsed=0:00:32.12    \nframe=   71 fps=2.2 q=14.3 size=    1024KiB time=00:00:01.15 bitrate=7294.7kbits/s speed=0.0352x elapsed=0:00:32.65    \nframe=   72 fps=2.2 q=15.6 size=    1024KiB time=00:00:01.16 bitrate=7190.5kbits/s speed=0.0352x elapsed=0:00:33.15    \nframe=   74 fps=2.2 q=15.6 size=    1024KiB time=00:00:01.20 bitrate=6990.8kbits/s speed=0.0356x elapsed=0:00:33.67    \nframe=   77 fps=2.3 q=15.6 size=    1024KiB time=00:00:01.25 bitrate=6711.2kbits/s speed=0.0366x elapsed=0:00:34.18    \nframe=   79 fps=2.3 q=15.6 size=    1024KiB time=00:00:01.28 bitrate=6536.9kbits/s speed=0.037x elapsed=0:00:34.71    \nframe=   82 fps=2.3 q=15.6 size=    1280KiB time=00:00:01.33 bitrate=7864.6kbits/s speed=0.0378x elapsed=0:00:35.24    \nframe=   85 fps=2.4 q=16.5 size=    1280KiB time=00:00:01.38 bitrate=7580.3kbits/s speed=0.0387x elapsed=0:00:35.76    \nframe=   86 fps=2.4 q=16.4 size=    1280KiB time=00:00:01.40 bitrate=7490.1kbits/s speed=0.0386x elapsed=0:00:36.27    \nframe=   89 fps=2.4 q=15.3 size=    1280KiB time=00:00:01.45 bitrate=7231.8kbits/s speed=0.0394x elapsed=0:00:36.78    \nframe=   92 fps=2.5 q=16.3 size=    1280KiB time=00:00:01.50 bitrate=6990.7kbits/s speed=0.0402x elapsed=0:00:37.31    \nframe=   95 fps=2.5 q=17.3 size=    1280KiB time=00:00:01.55 bitrate=6765.2kbits/s speed=0.041x elapsed=0:00:37.83    \nframe=   97 fps=2.5 q=15.6 size=    1280KiB time=00:00:01.58 bitrate=6622.8kbits/s speed=0.0413x elapsed=0:00:38.35    \nframe=  100 fps=2.6 q=17.3 size=    1536KiB time=00:00:01.63 bitrate=7704.0kbits/s speed=0.042x elapsed=0:00:38.88    \nframe=  103 fps=2.6 q=17.1 size=    1536KiB time=00:00:01.68 bitrate=7475.2kbits/s speed=0.0427x elapsed=0:00:39.39    \nframe=  106 fps=2.7 q=13.7 size=    1536KiB time=00:00:01.73 bitrate=7259.6kbits/s speed=0.0434x elapsed=0:00:39.91    \nframe=  108 fps=2.7 q=16.3 size=    1536KiB time=00:00:01.76 bitrate=7122.6kbits/s speed=0.0437x elapsed=0:00:40.43    \nframe=  112 fps=2.7 q=16.3 size=    1536KiB time=00:00:01.83 bitrate=6863.6kbits/s speed=0.0448x elapsed=0:00:40.95    \nframe=  116 fps=2.8 q=17.2 size=    1792KiB time=00:00:01.90 bitrate=7726.5kbits/s speed=0.0458x elapsed=0:00:41.47    \nframe=  119 fps=2.8 q=17.2 size=    1792KiB time=00:00:01.95 bitrate=7528.4kbits/s speed=0.0464x elapsed=0:00:41.99    \nframe=  123 fps=2.9 q=13.6 size=    1792KiB time=00:00:02.01 bitrate=7279.5kbits/s speed=0.0474x elapsed=0:00:42.50    \nframe=  128 fps=3.0 q=15.4 size=    1792KiB time=00:00:02.10 bitrate=6990.7kbits/s speed=0.0488x elapsed=0:00:43.02    \nframe=  133 fps=3.1 q=14.6 size=    2048KiB time=00:00:02.18 bitrate=7684.4kbits/s speed=0.0501x elapsed=0:00:43.54    \nframe=  138 fps=3.1 q=15.0 size=    2048KiB time=00:00:02.26 bitrate=7401.9kbits/s speed=0.0515x elapsed=0:00:44.05    \nframe=  145 fps=3.3 q=16.1 size=    2304KiB time=00:00:02.38 bitrate=7919.5kbits/s speed=0.0535x elapsed=0:00:44.56    \nframe=  150 fps=3.3 q=16.1 size=    2304KiB time=00:00:02.46 bitrate=7651.9kbits/s speed=0.0547x elapsed=0:00:45.09    \nframe=  155 fps=3.4 q=13.4 size=    2304KiB time=00:00:02.55 bitrate=7401.9kbits/s speed=0.0559x elapsed=0:00:45.61    \nframe=  162 fps=3.5 q=13.5 size=    2560KiB time=00:00:02.66 bitrate=7864.5kbits/s speed=0.0578x elapsed=0:00:46.12    \nframe=  167 fps=3.6 q=16.9 size=    2560KiB time=00:00:02.75 bitrate=7626.1kbits/s speed=0.0589x elapsed=0:00:46.64    \nframe=  172 fps=3.6 q=17.0 size=    2560KiB time=00:00:02.83 bitrate=7401.8kbits/s speed=0.0601x elapsed=0:00:47.15    \nframe=  178 fps=3.7 q=14.9 size=    2816KiB time=00:00:02.93 bitrate=7864.4kbits/s speed=0.0615x elapsed=0:00:47.67    \nframe=  185 fps=3.8 q=16.2 size=    2816KiB time=00:00:03.05 bitrate=7563.6kbits/s speed=0.0633x elapsed=0:00:48.19    \nframe=  192 fps=3.9 q=15.0 size=    2816KiB time=00:00:03.16 bitrate=7285.0kbits/s speed=0.065x elapsed=0:00:48.71    \nframe=  199 fps=4.0 q=15.3 size=    3072KiB time=00:00:03.28 bitrate=7664.8kbits/s speed=0.0667x elapsed=0:00:49.22    \nframe=  210 fps=4.2 q=13.6 size=    3328KiB time=00:00:03.46 bitrate=7864.4kbits/s speed=0.0697x elapsed=0:00:49.73    \nframe=  219 fps=4.4 q=13.5 size=    3328KiB time=00:00:03.61 bitrate=7538.2kbits/s speed=0.072x elapsed=0:00:50.26    \nframe=  228 fps=4.5 q=13.6 size=    3584KiB time=00:00:03.76 bitrate=7794.8kbits/s speed=0.0742x elapsed=0:00:50.78    \nframe=  238 fps=4.6 q=15.1 size=    3584KiB time=00:00:03.93 bitrate=7464.5kbits/s speed=0.0767x elapsed=0:00:51.30    \nframe=  247 fps=4.8 q=16.3 size=    3840KiB time=00:00:04.08 bitrate=7703.9kbits/s speed=0.0788x elapsed=0:00:51.81    \nframe=  258 fps=4.9 q=16.6 size=    4096KiB time=00:00:04.26 bitrate=7864.4kbits/s speed=0.0815x elapsed=0:00:52.33    \nframe=  268 fps=5.1 q=13.5 size=    4096KiB time=00:00:04.43 bitrate=7568.7kbits/s speed=0.0839x elapsed=0:00:52.84    \nframe=  277 fps=5.2 q=15.6 size=    4352KiB time=00:00:04.58 bitrate=7778.6kbits/s speed=0.0859x elapsed=0:00:53.36    \nframe=  287 fps=5.3 q=13.9 size=    4608KiB time=00:00:04.75 bitrate=7947.2kbits/s speed=0.0882x elapsed=0:00:53.87    \nframe=  297 fps=5.5 q=14.3 size=    4608KiB time=00:00:04.91 bitrate=7677.8kbits/s speed=0.0904x elapsed=0:00:54.39    \n[mp4 @ 000001f36b521100] Starting second pass: moving the moov atom to the beginning of the file\n[out#0/mp4 @ 000001f36b521000] video:4827KiB audio:0KiB subtitle:0KiB other streams:0KiB global headers:2KiB muxing overhead: 0.142887%\nframe=  300 fps=5.5 q=16.3 Lsize=    4833KiB time=00:00:04.96 bitrate=7972.2kbits/s speed=0.0911x elapsed=0:00:54.49    \nx265 [info]: frame I:      2, Avg QP:20.43  kb/s: 5739.60 \nx265 [info]: frame P:     71, Avg QP:14.14  kb/s: 8273.44 \nx265 [info]: frame B:    227, Avg QP:16.06  kb/s: 7809.98 \nx265 [info]: Weighted P-Frames: Y:12.7% UV:12.7%\n\nencoded 300 frames in 54.33s (5.52 fps), 7905.87 kb/s, Avg QP:15.64\n",
  "seconds": 54.87561774253845,
  "probe_out": {}
}